<svg width="42" height="42" viewBox="0 0 42 42" fill="none" xmlns="http://www.w3.org/2000/svg">
<path d="M13.8291 0H28.0507L40.6089 12.5582V36.6738C40.6089 39.6021 38.2111 42 35.2828 42H13.8291C10.9008 42 8.50293 39.6021 8.50293 36.6738V5.32621C8.50293 2.39785 10.9008 0 13.8291 0Z" fill="#7B8E9D"/>
<path d="M28.0508 0L40.6091 12.5582H29.407C28.6605 12.5582 28.0508 11.9486 28.0508 11.2021V0Z" fill="#62727E"/>
<path d="M2.55957 17.8845H31.4853C32.1285 17.8845 32.6542 18.4101 32.6542 19.0535V29.665C32.6542 30.3083 32.1285 30.834 31.4853 30.834H2.55957C1.91628 30.834 1.39062 30.3083 1.39062 29.665V19.0535C1.39062 18.4101 1.91636 17.8845 2.55957 17.8845Z" fill="#62727E"/>
<path d="M18.7379 21.0647L16.7592 24.358L18.7379 27.6512C18.9248 27.9622 18.8241 28.3658 18.5131 28.5526C18.4072 28.6161 18.2906 28.6465 18.1755 28.6465C17.9524 28.6465 17.7349 28.5329 17.6117 28.3278L15.993 25.6334L14.3743 28.3278C14.2511 28.5329 14.0337 28.6465 13.8105 28.6465C13.6955 28.6465 13.5788 28.6161 13.473 28.5526C13.1619 28.3658 13.0613 27.9622 13.2482 27.6512L15.2268 24.358L13.2482 21.0647C13.0613 20.7536 13.1619 20.35 13.473 20.1632C13.7839 19.9764 14.1875 20.0771 14.3743 20.388L15.993 23.0824L17.6117 20.388C17.7985 20.077 18.2021 19.9764 18.5131 20.1632C18.8241 20.35 18.9248 20.7536 18.7379 21.0647ZM11.046 20.0695H6.6823C6.31947 20.0695 6.02539 20.3635 6.02539 20.7263C6.02539 21.0891 6.31947 21.3832 6.6823 21.3832H8.20726V27.9896C8.20726 28.3525 8.50134 28.6465 8.86416 28.6465C9.22699 28.6465 9.52107 28.3525 9.52107 27.9896V21.3832H11.046C11.4089 21.3832 11.703 21.0891 11.703 20.7263C11.703 20.3635 11.4088 20.0695 11.046 20.0695ZM25.3036 20.0695H20.9399C20.577 20.0695 20.283 20.3635 20.283 20.7263C20.283 21.0891 20.577 21.3832 20.9399 21.3832H22.4648V27.9896C22.4648 28.3525 22.7589 28.6465 23.1217 28.6465C23.4846 28.6465 23.7787 28.3525 23.7787 27.9896V21.3832H25.3036C25.6665 21.3832 25.9605 21.0891 25.9605 20.7263C25.9605 20.3635 25.6665 20.0695 25.3036 20.0695Z" fill="white"/>
</svg>
