<svg width="33" height="37" viewBox="0 0 33 37" fill="none" xmlns="http://www.w3.org/2000/svg">
<path d="M32.7106 5.84782V26.6369C32.7106 30.2796 29.7487 33.2416 26.106 33.2416C22.4817 33.2416 19.5013 30.2796 19.5013 26.6369C19.5013 23.0126 22.4817 20.0506 26.106 20.0506C27.6513 20.0506 29.0312 20.5842 30.1534 21.4672V10.5208L13.2094 15.3409V30.1876C13.2094 33.8303 10.229 36.7923 6.60468 36.7923C2.96199 36.7923 0 33.8303 0 30.1876C0 26.5633 2.96199 23.6013 6.60468 23.6013C8.13167 23.6013 9.51148 24.1349 10.6337 24.9996V8.73622C10.6337 6.03179 12.2711 3.93448 14.8651 3.23538L25.4988 0.328587C27.6513 -0.260131 29.4727 -0.0577596 30.7605 0.935702C32.0667 1.91077 32.7106 3.56654 32.7106 5.84782Z" fill="#3DD9B3"/>
</svg>
