<svg width="42" height="42" viewBox="0 0 42 42" fill="none" xmlns="http://www.w3.org/2000/svg">
<path d="M13.8294 0H28.0519L40.6108 12.5565V36.6735C40.6108 39.6043 38.2128 42 35.2844 42H13.8294C10.901 42 8.50293 39.6043 8.50293 36.6735V5.32653C8.50293 2.39555 10.9011 0 13.8294 0Z" fill="#3B48A3"/>
<path d="M28.0527 0L40.6117 12.5565H29.4089C28.6625 12.5565 28.0527 11.9492 28.0527 11.2027V0Z" fill="#2F3982"/>
<path d="M2.55965 17.8831H31.4847C32.1279 17.8831 32.656 18.4087 32.656 19.052V29.6643C32.656 30.3076 32.1279 30.8356 31.4847 30.8356H2.55965C1.91628 30.8356 1.39062 30.3076 1.39062 29.6643V19.052C1.39062 18.4087 1.91628 17.8831 2.55965 17.8831Z" fill="#2F3982"/>
<path d="M17.0228 20.0496C15.4457 20.0496 14.1627 21.3326 14.1627 22.9095V25.8091C14.1627 27.3862 15.4458 28.6692 17.0228 28.6692C18.5999 28.6692 19.8829 27.3861 19.8829 25.8091V22.9095C19.8829 21.3324 18.5999 20.0496 17.0228 20.0496ZM18.5267 25.8091C18.5267 26.6383 17.8521 27.3129 17.0229 27.3129C16.1936 27.3129 15.519 26.6383 15.519 25.8091V22.9095C15.519 22.0804 16.1936 21.4057 17.0229 21.4057C17.8521 21.4057 18.5267 22.0804 18.5267 22.9095V25.8091ZM27.0769 25.8091C27.0769 27.3862 25.7939 28.6692 24.2169 28.6692C22.6399 28.6692 21.3569 27.3861 21.3569 25.8091V22.9095C21.3569 21.3324 22.6399 20.0496 24.2169 20.0496C25.7939 20.0496 27.0769 21.3326 27.0769 22.9095C27.0769 23.2841 26.7733 23.5876 26.3988 23.5876C26.0242 23.5876 25.7207 23.2841 25.7207 22.9095C25.7207 22.0804 25.0461 21.4057 24.2169 21.4057C23.3877 21.4057 22.7131 22.0804 22.7131 22.9095V25.8091C22.7131 26.6383 23.3877 27.3129 24.2169 27.3129C25.0461 27.3129 25.7207 26.6383 25.7207 25.8091C25.7207 25.4346 26.0242 25.131 26.3988 25.131C26.7733 25.1311 27.0769 25.4347 27.0769 25.8091ZM9.82877 20.0496H7.64682C7.27226 20.0496 6.96875 20.3531 6.96875 20.7275V27.9911C6.96875 28.3657 7.27235 28.6692 7.64682 28.6692H9.82877C11.4059 28.6692 12.6889 27.3861 12.6889 25.8091V22.9095C12.6889 21.3324 11.4059 20.0496 9.82877 20.0496ZM11.3326 25.8091C11.3326 26.6383 10.658 27.3129 9.82877 27.3129H8.32497V21.4056H9.82877C10.658 21.4056 11.3326 22.0803 11.3326 22.9094V25.8091Z" fill="white"/>
</svg>
