<svg width="32" height="32" viewBox="0 0 32 32" fill="none" xmlns="http://www.w3.org/2000/svg">
<path d="M25.9126 5.37939C26.089 5.65662 25.7869 5.97957 25.4665 5.90675C24.8398 5.72008 24.1465 5.62675 23.4398 5.62675H19.0984C18.8516 5.62675 18.6193 5.5107 18.471 5.31344L16.9731 3.32008C16.7853 3.05401 16.9628 2.66675 17.2885 2.66675H20.9598C23.0411 2.66675 24.8745 3.74772 25.9126 5.37939Z" fill="white"/>
<path d="M26.8532 8.72008C26.2798 8.30675 25.6265 8.00008 24.9198 7.82675C24.4398 7.69341 23.9465 7.62675 23.4398 7.62675H18.4798C17.7065 7.62675 17.6532 7.56008 17.2398 7.01341L15.3732 4.53341C14.5065 3.37341 13.8265 2.66675 11.6532 2.66675H8.55984C5.3065 2.66675 2.6665 5.30675 2.6665 8.56008V23.4401C2.6665 26.6934 5.3065 29.3334 8.55984 29.3334H23.4398C26.6932 29.3334 29.3332 26.6934 29.3332 23.4401V13.5201C29.3332 11.5334 28.3598 9.78675 26.8532 8.72008ZM19.1865 21.7867H12.7998C12.2798 21.7867 11.8798 21.3734 11.8798 20.8534C11.8798 20.3467 12.2798 19.9201 12.7998 19.9201H19.1865C19.7065 19.9201 20.1198 20.3467 20.1198 20.8534C20.1198 21.3734 19.7065 21.7867 19.1865 21.7867Z" fill="white"/>
</svg>
