<svg width="42" height="42" viewBox="0 0 42 42" fill="none" xmlns="http://www.w3.org/2000/svg">
<path d="M13.8281 0H28.0522L40.608 12.5582V36.6738C40.608 39.6021 38.2126 42 35.2819 42H13.8282C10.8999 42 8.50439 39.6021 8.50439 36.6738V5.32621C8.50439 2.39785 10.8999 0 13.8281 0Z" fill="#E5252A"/>
<path d="M28.0527 0L40.6086 12.5582H29.4065C28.6601 12.5582 28.0527 11.9486 28.0527 11.2021V0Z" fill="#B71D21"/>
<path d="M2.55957 17.8845H31.4853C32.1285 17.8845 32.6542 18.4101 32.6542 19.0535V29.665C32.6542 30.3083 32.1285 30.834 31.4853 30.834H2.55957C1.91628 30.834 1.39062 30.3083 1.39062 29.665V19.0535C1.39062 18.4101 1.91636 17.8845 2.55957 17.8845Z" fill="#B71D21"/>
<path d="M9.66023 20.0483H7.47836C7.10389 20.0483 6.80029 20.3519 6.80029 20.7264V24.3027V25.1837V27.9896C6.80029 28.364 7.10389 28.6677 7.47836 28.6677C7.85283 28.6677 8.15644 28.364 8.15644 27.9896V25.8617H9.66015C11.2371 25.8617 12.5201 24.5788 12.5201 23.0019V22.9082C12.5202 21.3312 11.2372 20.0483 9.66023 20.0483ZM11.164 23.0018C11.164 23.831 10.4894 24.5055 9.66023 24.5055H8.15644V24.3027V21.4044H9.66015C10.4893 21.4044 11.1639 22.079 11.1639 22.9081L11.164 23.0018ZM16.9571 20.0483H14.7753C14.4009 20.0483 14.0972 20.3519 14.0972 20.7264V27.9896C14.0972 28.364 14.4009 28.6677 14.7753 28.6677H16.9571C18.5341 28.6677 19.817 27.3847 19.817 25.8078V22.9082C19.817 21.3312 18.5341 20.0483 16.9571 20.0483ZM18.4609 25.8077C18.4609 26.6369 17.7863 27.3114 16.9571 27.3114H15.4534V21.4044H16.9571C17.7863 21.4044 18.4609 22.079 18.4609 22.9081V25.8077ZM22.8821 21.4044V23.2815H26.0253C26.3997 23.2815 26.7034 23.5851 26.7034 23.9596C26.7034 24.334 26.3997 24.6377 26.0253 24.6377H22.8821V27.9896C22.8821 28.364 22.5785 28.6677 22.204 28.6677C21.8296 28.6677 21.526 28.364 21.526 27.9896V20.7264C21.526 20.3519 21.8296 20.0483 22.204 20.0483H26.5677C26.9422 20.0483 27.2457 20.3519 27.2457 20.7264C27.2457 21.1009 26.9422 21.4044 26.5677 21.4044H22.8821Z" fill="white"/>
</svg>
