<svg width="42" height="42" viewBox="0 0 42 42" fill="none" xmlns="http://www.w3.org/2000/svg">
<path d="M13.8294 0H28.0519L40.6108 12.5565V36.6735C40.6108 39.6043 38.2128 42 35.2843 42H13.8294C10.901 42 8.50293 39.6043 8.50293 36.6735V5.32653C8.503 2.39555 10.9011 0 13.8294 0Z" fill="#008BF5"/>
<path d="M28.0527 0L40.6117 12.5565H29.4089C28.6625 12.5565 28.0527 11.9492 28.0527 11.2027V0Z" fill="#006FC4"/>
<path d="M2.55965 17.8831H31.487C32.1279 17.8831 32.656 18.4087 32.656 19.052V29.6643C32.656 30.3076 32.1279 30.8356 31.487 30.8356H2.55965C1.91636 30.8356 1.39062 30.3076 1.39062 29.6643V19.052C1.39071 18.4087 1.91636 17.8831 2.55965 17.8831Z" fill="#006FC4"/>
<path d="M13.9269 20.0494C12.3498 20.0494 11.0668 21.3324 11.0668 22.9094V25.8091C11.0668 27.3861 12.3499 28.6691 13.9269 28.6691C15.504 28.6691 16.787 27.386 16.787 25.8091V22.9094C16.787 21.3323 15.504 20.0494 13.9269 20.0494ZM15.4307 25.8091C15.4307 26.6382 14.7561 27.3128 13.9269 27.3128C13.0977 27.3128 12.4231 26.6382 12.4231 25.8091V22.9094C12.4231 22.0802 13.0977 21.4056 13.9269 21.4056C14.7561 21.4056 15.4307 22.0802 15.4307 22.9094V25.8091ZM19.0577 22.9094V25.8091C19.0577 26.6382 19.7323 27.3128 20.5615 27.3128C21.3908 27.3128 22.0654 26.6382 22.0654 25.8091C22.0654 25.4345 22.369 25.1309 22.7435 25.1309C23.1182 25.1309 23.4216 25.4345 23.4216 25.8091C23.4216 27.3861 22.1386 28.6691 20.5615 28.6691C18.9845 28.6691 17.7015 27.386 17.7015 25.8091V22.9094C17.7015 21.3323 18.9845 20.0494 20.5615 20.0494C22.1387 20.0494 23.4216 21.3324 23.4216 22.9094C23.4216 23.284 23.1181 23.5876 22.7435 23.5876C22.369 23.5876 22.0654 23.284 22.0654 22.9094C22.0654 22.0802 21.3908 21.4056 20.5615 21.4056C19.7323 21.4056 19.0577 22.0802 19.0577 22.9094ZM7.17692 20.0494H4.99496C4.62041 20.0494 4.31689 20.353 4.31689 20.7274V27.991C4.31689 28.3655 4.62049 28.6691 4.99496 28.6691H7.17692C8.75396 28.6691 10.0369 27.386 10.0369 25.8091V22.9094C10.037 21.3323 8.75396 20.0494 7.17692 20.0494ZM8.68079 25.8091C8.68079 26.6382 8.00616 27.3128 7.17699 27.3128H5.67312V21.4055H7.17692C8.00608 21.4055 8.68071 22.0801 8.68071 22.9093L8.68079 25.8091ZM29.6284 27.6418C29.8213 27.9628 29.7174 28.3794 29.3963 28.5723C29.2869 28.6379 29.1666 28.6692 29.0477 28.6692C28.8175 28.6692 28.593 28.5518 28.4658 28.3402L26.8652 25.676L25.2645 28.3402C25.1373 28.5519 24.9127 28.6692 24.6826 28.6692C24.5636 28.6692 24.4434 28.6379 24.334 28.5723C24.013 28.3794 23.909 27.9628 24.1019 27.6418L26.0741 24.3593L24.1019 21.0767C23.909 20.7557 24.013 20.339 24.334 20.1463C24.6552 19.9534 25.0716 20.0573 25.2645 20.3783L26.8652 23.0426L28.4658 20.3783C28.6587 20.0573 29.0752 19.9534 29.3963 20.1463C29.7173 20.339 29.8213 20.7557 29.6284 21.0767L27.6562 24.3593L29.6284 27.6418Z" fill="white"/>
</svg>
