<svg width="31" height="39" viewBox="0 0 31 39" fill="none" xmlns="http://www.w3.org/2000/svg">
<path d="M29.9004 7.25968L22.2287 0.360644C21.9756 0.130634 21.6462 0.0027871 21.3042 0.00189435H4.44298C3.30667 -0.0317538 2.20291 0.383981 1.37115 1.15891C0.539395 1.93384 0.0467177 3.00547 0 4.14132V34.4971C0.0467177 35.6329 0.539395 36.7046 1.37115 37.4795C2.20291 38.2544 3.30667 38.6702 4.44298 38.6365H25.9128C27.0491 38.6702 28.1529 38.2544 28.9846 37.4795C29.8164 36.7046 30.3091 35.6329 30.3558 34.4971V8.28074C30.3553 8.0882 30.3146 7.89788 30.2361 7.72203C30.1577 7.54618 30.0434 7.38869 29.9004 7.25968ZM14.9433 12.4202H15.4125C16.4584 12.4192 17.4811 12.7286 18.351 13.3092C19.221 13.8898 19.8991 14.7156 20.2995 15.6818C20.6999 16.6481 20.8045 17.7114 20.6002 18.7372C20.3959 19.7629 19.8918 20.705 19.1517 21.4441L17.3028 23.293C17.0649 23.5241 16.8762 23.8009 16.7481 24.1068C16.6201 24.4127 16.5553 24.7414 16.5577 25.073C16.5577 25.4389 16.4123 25.7899 16.1536 26.0487C15.8948 26.3074 15.5438 26.4528 15.1779 26.4528C14.8119 26.4528 14.461 26.3074 14.2022 26.0487C13.9434 25.7899 13.7981 25.4389 13.7981 25.073C13.7983 23.6712 14.354 22.3266 15.3435 21.3337L17.1924 19.4848C17.4303 19.2538 17.619 18.977 17.7471 18.671C17.8751 18.3651 17.9399 18.0365 17.9375 17.7048C17.9375 17.0351 17.6715 16.3929 17.1979 15.9193C16.7244 15.4458 16.0821 15.1798 15.4125 15.1798H14.9433C14.2736 15.1798 13.6314 15.4458 13.1578 15.9193C12.6843 16.3929 12.4183 17.0351 12.4183 17.7048C12.4183 18.0708 12.2729 18.4217 12.0141 18.6805C11.7554 18.9393 11.4044 19.0846 11.0385 19.0846C10.6725 19.0846 10.3216 18.9393 10.0628 18.6805C9.80403 18.4217 9.65865 18.0708 9.65865 17.7048C9.6623 16.3044 10.2202 14.9623 11.2105 13.972C12.2008 12.9818 13.5429 12.4238 14.9433 12.4202ZM13.7981 28.9779C13.7913 28.8906 13.7913 28.8029 13.7981 28.7157C13.8109 28.6243 13.8389 28.5357 13.8809 28.4535C13.9111 28.3656 13.9528 28.2821 14.005 28.2052C14.056 28.1329 14.1113 28.0638 14.1706 27.9982C14.3019 27.8726 14.4566 27.7741 14.626 27.7084C14.8772 27.6028 15.1542 27.5739 15.4219 27.6255C15.6895 27.677 15.9359 27.8067 16.13 27.9982C16.1893 28.0638 16.2446 28.1329 16.2955 28.2052C16.3477 28.2821 16.3895 28.3656 16.4197 28.4535C16.4617 28.5357 16.4897 28.6243 16.5025 28.7157C16.5278 28.8015 16.5462 28.8892 16.5577 28.9779C16.5526 29.3432 16.4097 29.6931 16.1575 29.9575L15.9506 30.1231C15.8737 30.1753 15.7901 30.2171 15.7022 30.2473L15.4538 30.3577H15.1779C14.9976 30.3555 14.8194 30.318 14.6536 30.2473C14.4842 30.1816 14.3294 30.0831 14.1982 29.9575C13.9461 29.6931 13.8032 29.3432 13.7981 28.9779Z" fill="#6295F2"/>
<path d="M30.3558 8.2808V11.0404H22.0769C20.9791 11.0404 19.9262 10.6043 19.1499 9.82801C18.3736 9.05171 17.9375 7.99883 17.9375 6.90099V0.00195312H21.3042C21.6462 0.00284587 21.9756 0.130693 22.2287 0.360703L29.9004 7.25974C30.0434 7.38875 30.1577 7.54624 30.2361 7.72209C30.3146 7.89794 30.3553 8.08826 30.3558 8.2808Z" fill="#98B8FE"/>
<path d="M30.1902 28.7019C30.1902 28.68 30.1989 28.6589 30.2144 28.6434C30.23 28.6279 30.251 28.6191 30.273 28.6191C30.2949 28.6191 30.316 28.6279 30.3315 28.6434C30.347 28.6589 30.3558 28.68 30.3558 28.7019V34.4971C30.3091 35.633 29.8164 36.7046 28.9846 37.4795C28.1529 38.2545 27.0491 38.6702 25.9128 38.6365H4.44298C3.30667 38.6702 2.20291 38.2545 1.37115 37.4795C0.539395 36.7046 0.0467177 35.633 0 34.4971V28.7295C0 28.7076 0.008722 28.6865 0.0242479 28.671C0.0397737 28.6555 0.0608315 28.6467 0.0827884 28.6467C0.104745 28.6467 0.125803 28.6555 0.141329 28.671C0.156855 28.6865 0.165577 28.7076 0.165577 28.7295C0.465189 29.6211 1.0417 30.3938 1.8111 30.9348C2.5805 31.4759 3.50259 31.7571 4.44298 31.7375H25.9128C26.8566 31.7552 27.7813 31.47 28.5511 30.9237C29.3209 30.3774 29.8954 29.5987 30.1902 28.7019Z" fill="url(#paint0_linear_137158_1954)"/>
<defs>
<linearGradient id="paint0_linear_137158_1954" x1="15.1779" y1="38.6365" x2="15.1779" y2="28.6467" gradientUnits="userSpaceOnUse">
<stop offset="0.14" stop-color="#3758C0"/>
<stop offset="0.24" stop-color="#446BCF"/>
<stop offset="0.4" stop-color="#5582E2"/>
<stop offset="0.55" stop-color="#5F90EE"/>
<stop offset="0.68" stop-color="#6295F2"/>
</linearGradient>
</defs>
</svg>
