<svg width="42" height="42" viewBox="0 0 42 42" fill="none" xmlns="http://www.w3.org/2000/svg">
<path d="M13.8314 0H28.0539L40.6104 12.5565V36.6735C40.6104 39.6043 38.2147 42 35.2839 42H13.8314C10.9006 42 8.50488 39.6043 8.50488 36.6735V5.32653C8.50488 2.39555 10.9004 0 13.8314 0Z" fill="#00733B"/>
<path d="M28.0547 0L40.6111 12.5565H29.4085C28.6619 12.5565 28.0547 11.9492 28.0547 11.2027V0Z" fill="#005C2F"/>
<path d="M2.55965 17.8831H31.487C32.1303 17.8831 32.656 18.4087 32.656 19.052V29.6643C32.656 30.3076 32.1304 30.8356 31.487 30.8356H2.55965C1.91636 30.8356 1.39062 30.3076 1.39062 29.6643V19.052C1.39062 18.4087 1.91628 17.8831 2.55965 17.8831Z" fill="#005C2F"/>
<path d="M8.47691 22.9095V25.8092C8.47691 26.6383 9.15154 27.3129 9.98078 27.3129C10.8099 27.3129 11.4846 26.6383 11.4846 25.8092C11.4846 25.4346 11.7882 25.131 12.1627 25.131C12.5372 25.131 12.8407 25.4346 12.8407 25.8092C12.8407 27.3862 11.5577 28.6692 9.98071 28.6692C8.40365 28.6692 7.12061 27.3861 7.12061 25.8092V22.9095C7.12061 21.3324 8.40365 20.0496 9.98071 20.0496C11.5577 20.0496 12.8407 21.3326 12.8407 22.9095C12.8407 23.2841 12.5371 23.5876 12.1627 23.5876C11.7881 23.5876 11.4846 23.2841 11.4846 22.9095C11.4846 22.0804 10.8099 21.4057 9.98078 21.4057C9.15154 21.4057 8.47691 22.0804 8.47691 22.9095ZM16.5051 21.4057H17.5854C18.0214 21.4057 18.3762 21.7605 18.3762 22.1967C18.3762 22.5712 18.6799 22.8748 19.0543 22.8748C19.4289 22.8748 19.7324 22.5711 19.7324 22.1967C19.7324 21.0127 18.7693 20.0496 17.5853 20.0496H16.505C15.1292 20.0496 14.0098 21.1678 14.0098 22.5423C14.0098 23.7589 14.6349 24.3524 15.1592 24.636C15.8246 24.9958 16.6638 25.0375 17.2371 25.0375C17.8651 25.0375 18.3761 25.5474 18.3761 26.174C18.3761 26.802 17.8651 27.3129 17.2371 27.3129H16.157C15.7209 27.3129 15.366 26.9581 15.366 26.5221C15.366 26.1474 15.0623 25.8439 14.6879 25.8439C14.3134 25.8439 14.0098 26.1474 14.0098 26.5221C14.0098 27.7059 14.9731 28.6692 16.157 28.6692H17.2372C18.613 28.6692 19.7324 27.5498 19.7324 26.174C19.7324 24.7993 18.613 23.6812 17.2372 23.6812C15.5069 23.6812 15.3661 23.1653 15.3661 22.5422C15.3661 21.9156 15.877 21.4057 16.5051 21.4057ZM26.4598 20.0841C26.1043 19.966 25.7205 20.1584 25.6024 20.5138L23.8336 25.8397L22.0647 20.5138C21.9467 20.1584 21.563 19.9661 21.2075 20.0841C20.852 20.2021 20.6596 20.5859 20.7776 20.9413L23.1901 28.2049C23.2822 28.4821 23.5414 28.6693 23.8336 28.6693C24.1257 28.6693 24.3851 28.4822 24.4772 28.2049L26.8895 20.9413C27.0076 20.5859 26.8152 20.2021 26.4598 20.0841Z" fill="white"/>
</svg>
