<svg width="32" height="32" viewBox="0 0 32 32" fill="none" xmlns="http://www.w3.org/2000/svg">
<path d="M8.33113 24.5079C7.28705 24.5061 6.26983 24.1829 5.4226 23.5838C4.57537 22.9848 3.94077 22.14 3.60808 21.1684L3.56141 21.0179C3.41205 20.559 3.33427 20.0806 3.33073 19.5988V10.6735L0.0957954 21.2745C-0.102192 22.0288 0.00930099 22.8293 0.406293 23.5038C0.803285 24.1782 1.45406 24.6728 2.21864 24.881L22.8376 30.302C23.095 30.3674 23.3524 30.3988 23.6057 30.3988C24.9338 30.3988 26.1473 29.5335 26.4873 28.2585L27.6887 24.5079H8.33113ZM11.9981 10.7625C13.4689 10.7625 14.665 9.58823 14.665 8.1443C14.665 6.70038 13.4689 5.52612 11.9981 5.52612C10.5273 5.52612 9.33121 6.70038 9.33121 8.1443C9.33121 9.58823 10.5273 10.7625 11.9981 10.7625Z" fill="white"/>
<path d="M28.6663 1.59888H8.66466C7.78086 1.59992 6.93356 1.94505 6.30861 2.55858C5.68367 3.17211 5.33211 4.00394 5.33105 4.8716V19.2716C5.33105 21.0755 6.82718 22.5443 8.66466 22.5443H28.6663C30.5038 22.5443 31.9999 21.0755 31.9999 19.2716V4.8716C31.9999 3.06768 30.5038 1.59888 28.6663 1.59888ZM8.66466 4.21706H28.6663C28.8431 4.21706 29.0127 4.28602 29.1377 4.40877C29.2628 4.53152 29.333 4.69801 29.333 4.8716V14.1648L25.1207 9.33953C24.8979 9.08836 24.6233 8.88666 24.315 8.74784C24.0066 8.60902 23.6717 8.53627 23.3325 8.53444C22.9922 8.53617 22.6563 8.61101 22.3486 8.75371C22.0408 8.89641 21.7686 9.10351 21.551 9.36048L16.5986 15.1964L14.9852 13.6163C14.5464 13.1863 13.9517 12.9447 13.3317 12.9447C12.7117 12.9447 12.117 13.1863 11.6782 13.6163L7.99794 17.2281V4.8716C7.99794 4.69801 8.06818 4.53152 8.19322 4.40877C8.31825 4.28602 8.48783 4.21706 8.66466 4.21706Z" fill="white"/>
</svg>
