<svg width="26" height="26" viewBox="0 0 26 26" fill="none" xmlns="http://www.w3.org/2000/svg">
<path d="M6.76905 19.9127C5.92072 19.9112 5.09424 19.6486 4.40586 19.1619C3.71749 18.6752 3.20188 17.9888 2.93157 17.1994L2.89365 17.0771C2.77229 16.7042 2.7091 16.3155 2.70621 15.9241V8.67221L0.0778338 17.2855C-0.0830311 17.8984 0.00755705 18.5488 0.330113 19.0968C0.652669 19.6448 1.18142 20.0466 1.80264 20.2159L18.5556 24.6204C18.7647 24.6736 18.9738 24.6991 19.1796 24.6991C20.2587 24.6991 21.2446 23.996 21.5209 22.96L22.4971 19.9127H6.76905ZM9.74846 8.74453C10.9435 8.74453 11.9153 7.79045 11.9153 6.61726C11.9153 5.44407 10.9435 4.48999 9.74846 4.48999C8.55344 4.48999 7.58161 5.44407 7.58161 6.61726C7.58161 7.79045 8.55344 8.74453 9.74846 8.74453Z" fill="white"/>
<path d="M23.2909 1.29907H7.03961C6.32152 1.29992 5.63309 1.58034 5.12532 2.07883C4.61756 2.57733 4.33191 3.25319 4.33105 3.95816V15.6582C4.33105 17.1239 5.54665 18.3173 7.03961 18.3173H23.2909C24.7839 18.3173 25.9995 17.1239 25.9995 15.6582V3.95816C25.9995 2.49247 24.7839 1.29907 23.2909 1.29907ZM7.03961 3.42634H23.2909C23.4346 3.42634 23.5724 3.48238 23.674 3.58211C23.7756 3.68185 23.8326 3.81712 23.8326 3.95816V11.5089L20.4101 7.58835C20.2292 7.38428 20.006 7.22039 19.7555 7.1076C19.505 6.99481 19.2328 6.9357 18.9572 6.93422C18.6807 6.93562 18.4078 6.99643 18.1578 7.11237C17.9077 7.22832 17.6866 7.39659 17.5098 7.60537L13.486 12.3471L12.175 11.0633C11.8185 10.7138 11.3354 10.5175 10.8316 10.5175C10.3278 10.5175 9.84464 10.7138 9.48814 11.0633L6.4979 13.9978V3.95816C6.4979 3.81712 6.55497 3.68185 6.65656 3.58211C6.75815 3.48238 6.89594 3.42634 7.03961 3.42634Z" fill="white"/>
</svg>
