<?xml version="1.0" encoding="UTF-8"?>
<svg xmlns="http://www.w3.org/2000/svg" xmlns:xlink="http://www.w3.org/1999/xlink" width="52px" height="52px" viewBox="0 0 52 52" version="1.1">
<defs>
<filter id="alpha" filterUnits="objectBoundingBox" x="0%" y="0%" width="100%" height="100%">
  <feColorMatrix type="matrix" in="SourceGraphic" values="0 0 0 0 1 0 0 0 0 1 0 0 0 0 1 0 0 0 1 0"/>
</filter>
<mask id="mask0">
  <g filter="url(#alpha)">
<rect x="0" y="0" width="52" height="52" style="fill:rgb(0%,0%,0%);fill-opacity:0.2;stroke:none;"/>
  </g>
</mask>
<clipPath id="clip1">
  <rect x="0" y="0" width="52" height="52"/>
</clipPath>
<g id="surface5" clip-path="url(#clip1)">
<path style=" stroke:none;fill-rule:nonzero;fill:rgb(98.039216%,44.705883%,45.882353%);fill-opacity:1;" d="M 23.546875 0 C 36.550781 0 47.09375 10.746094 47.09375 24 C 47.09375 37.253906 36.550781 48 23.546875 48 C 10.542969 48 0 37.253906 0 24 C 0 10.746094 10.542969 0 23.546875 0 Z M 23.546875 0 "/>
</g>
</defs>
<g id="surface1">
<use xlink:href="#surface5" mask="url(#mask0)"/>
<path style=" stroke:none;fill-rule:nonzero;fill:rgb(98.039216%,44.705883%,45.882353%);fill-opacity:1;" d="M 36.300781 20 C 44.972656 20 52 27.164062 52 36 C 52 44.835938 44.972656 52 36.300781 52 C 27.632812 52 20.605469 44.835938 20.605469 36 C 20.605469 27.164062 27.632812 20 36.300781 20 Z M 36.300781 20 "/>
</g>
</svg>
