<?xml version="1.0" encoding="UTF-8"?>
<svg xmlns="http://www.w3.org/2000/svg" xmlns:xlink="http://www.w3.org/1999/xlink" width="83px" height="82px" viewBox="0 0 83 82" version="1.1">
<defs>
<filter id="alpha" filterUnits="objectBoundingBox" x="0%" y="0%" width="100%" height="100%">
  <feColorMatrix type="matrix" in="SourceGraphic" values="0 0 0 0 1 0 0 0 0 1 0 0 0 0 1 0 0 0 1 0"/>
</filter>
<mask id="mask0">
  <g filter="url(#alpha)">
<rect x="0" y="0" width="83" height="82" style="fill:rgb(0%,0%,0%);fill-opacity:0.2;stroke:none;"/>
  </g>
</mask>
<clipPath id="clip1">
  <rect x="0" y="0" width="83" height="82"/>
</clipPath>
<g id="surface5" clip-path="url(#clip1)">
<path style=" stroke:none;fill-rule:nonzero;fill:rgb(98.039216%,44.705883%,45.882353%);fill-opacity:1;" d="M 37.585938 0 C 58.34375 0 75.167969 16.945312 75.167969 37.847656 C 75.167969 58.746094 58.34375 75.691406 37.585938 75.691406 C 16.828125 75.691406 0 58.746094 0 37.847656 C 0 16.945312 16.828125 0 37.585938 0 Z M 37.585938 0 "/>
</g>
</defs>
<g id="surface1">
<use xlink:href="#surface5" mask="url(#mask0)"/>
<path style=" stroke:none;fill-rule:nonzero;fill:rgb(98.039216%,44.705883%,45.882353%);fill-opacity:1;" d="M 57.945312 31.539062 C 71.78125 31.539062 83 42.835938 83 56.769531 C 83 70.703125 71.78125 82 57.945312 82 C 44.105469 82 32.886719 70.703125 32.886719 56.769531 C 32.886719 42.835938 44.105469 31.539062 57.945312 31.539062 Z M 57.945312 31.539062 "/>
</g>
</svg>
