<?xml version="1.0" encoding="UTF-8"?>
<svg xmlns="http://www.w3.org/2000/svg" xmlns:xlink="http://www.w3.org/1999/xlink" width="82px" height="82px" viewBox="0 0 82 82" version="1.1">
<defs>
<filter id="alpha" filterUnits="objectBoundingBox" x="0%" y="0%" width="100%" height="100%">
  <feColorMatrix type="matrix" in="SourceGraphic" values="0 0 0 0 1 0 0 0 0 1 0 0 0 0 1 0 0 0 1 0"/>
</filter>
<mask id="mask0">
  <g filter="url(#alpha)">
<rect x="0" y="0" width="82" height="82" style="fill:rgb(0%,0%,0%);fill-opacity:0.2;stroke:none;"/>
  </g>
</mask>
<clipPath id="clip1">
  <rect x="0" y="0" width="82" height="82"/>
</clipPath>
<g id="surface5" clip-path="url(#clip1)">
<path style=" stroke:none;fill-rule:nonzero;fill:rgb(100%,100%,100%);fill-opacity:1;" d="M 36.964844 0 C 57.378906 0 73.929688 16.75 73.929688 37.417969 C 73.929688 58.082031 57.378906 74.832031 36.964844 74.832031 C 16.550781 74.832031 0 58.082031 0 37.417969 C 0 16.75 16.550781 0 36.964844 0 Z M 36.964844 0 "/>
</g>
</defs>
<g id="surface1">
<use xlink:href="#surface5" mask="url(#mask0)"/>
<path style=" stroke:none;fill-rule:nonzero;fill:rgb(100%,100%,100%);fill-opacity:1;" d="M 56.988281 31.179688 C 70.597656 31.179688 81.632812 42.347656 81.632812 56.125 C 81.632812 69.902344 70.597656 81.066406 56.988281 81.066406 C 43.378906 81.066406 32.34375 69.902344 32.34375 56.125 C 32.34375 42.347656 43.378906 31.179688 56.988281 31.179688 Z M 56.988281 31.179688 "/>
</g>
</svg>
