<svg width="26" height="26" viewBox="0 0 26 26" fill="none" xmlns="http://www.w3.org/2000/svg">
<path d="M22.9122 6.68409C22.468 6.44575 21.5363 6.19659 20.2688 7.08492L18.6763 8.21159C18.5572 4.84242 17.0947 3.52075 13.5413 3.52075H7.04134C3.33634 3.52075 1.89551 4.96159 1.89551 8.66659V17.3333C1.89551 19.8249 3.24967 22.4791 7.04134 22.4791H13.5413C17.0947 22.4791 18.5572 21.1574 18.6763 17.7883L20.2688 18.9149C20.9405 19.3916 21.5255 19.5433 21.9913 19.5433C22.3922 19.5433 22.7063 19.4241 22.9122 19.3158C23.3563 19.0883 24.1038 18.4708 24.1038 16.9216V9.07825C24.1038 7.52909 23.3563 6.91159 22.9122 6.68409ZM11.9163 12.3283C10.8005 12.3283 9.87967 11.4183 9.87967 10.2916C9.87967 9.16492 10.8005 8.25492 11.9163 8.25492C13.0322 8.25492 13.953 9.16492 13.953 10.2916C13.953 11.4183 13.0322 12.3283 11.9163 12.3283Z" fill="white"/>
</svg>
