<svg width="26" height="26" viewBox="0 0 26 26" fill="none" xmlns="http://www.w3.org/2000/svg">
<path d="M24.5194 6.9814C23.7567 4.39544 21.5998 2.23849 19.0138 1.47581C17.0475 0.903802 15.689 0.95147 14.7476 1.65457C13.6155 2.50066 13.4844 4.02602 13.4844 5.11046V8.07776C13.4844 11.0093 14.8191 12.4989 17.4408 12.4989H20.8609C21.9334 12.4989 23.4707 12.3678 24.3168 11.2357C25.0437 10.3062 25.1033 8.94769 24.5194 6.9814Z" fill="white"/>
<path d="M21.2314 14.6204C20.9216 14.2629 20.4687 14.0603 20.004 14.0603H15.7377C13.6404 14.0603 11.9362 12.3562 11.9362 10.2588V5.9926C11.9362 5.52784 11.7337 5.075 11.3762 4.76516C11.0306 4.45532 10.5539 4.31232 10.101 4.3719C7.30058 4.72941 4.72654 6.26668 3.04626 8.57856C1.35407 10.9023 0.734388 13.7386 1.27065 16.5748C2.04524 20.6742 5.32238 23.9513 9.4337 24.7259C10.0891 24.857 10.7446 24.9166 11.4 24.9166C13.5569 24.9166 15.6424 24.2492 17.418 22.9503C19.7299 21.27 21.2672 18.696 21.6247 15.8955C21.6842 15.4308 21.5412 14.966 21.2314 14.6204Z" fill="white"/>
</svg>
